<svg width="33" height="34" viewBox="0 0 33 34" fill="none" xmlns="http://www.w3.org/2000/svg">
<path fill-rule="evenodd" clip-rule="evenodd" d="M16.9306 0.960364C17.0633 1.01526 17.1876 1.09664 17.2955 1.2045L20.2955 4.2045C20.7348 4.64384 20.7348 5.35616 20.2955 5.7955C19.8562 6.23484 19.1438 6.23484 18.7045 5.7955L17.625 4.71599V11C17.625 11.6213 17.1213 12.125 16.5 12.125C15.8787 12.125 15.375 11.6213 15.375 11V4.71599L14.2955 5.7955C13.8562 6.23484 13.1438 6.23484 12.7045 5.7955C12.2652 5.35616 12.2652 4.64384 12.7045 4.2045L15.7045 1.2045M16.9306 0.960364C16.798 0.905359 16.6525 0.875 16.5 0.875C16.3475 0.875 16.202 0.905359 16.0694 0.960364C15.9377 1.01486 15.8142 1.09544 15.7069 1.20212" fill="#1C1B1F"/>
<path fill-rule="evenodd" clip-rule="evenodd" d="M16.5 21.875C17.1213 21.875 17.625 22.3787 17.625 23V29.284L18.7045 28.2045C19.1438 27.7652 19.8562 27.7652 20.2955 28.2045C20.7348 28.6438 20.7348 29.3562 20.2955 29.7955L17.2955 32.7955C17.1876 32.9034 17.0633 32.9847 16.9306 33.0396C16.798 33.0946 16.6525 33.125 16.5 33.125C16.3475 33.125 16.202 33.0946 16.0694 33.0396C15.9367 32.9847 15.8124 32.9034 15.7045 32.7955L12.7045 29.7955C12.2652 29.3562 12.2652 28.6438 12.7045 28.2045C13.1438 27.7652 13.8562 27.7652 14.2955 28.2045L15.375 29.284V23C15.375 22.3787 15.8787 21.875 16.5 21.875Z" fill="#1C1B1F"/>
<path fill-rule="evenodd" clip-rule="evenodd" d="M27.7045 13.2045C28.1438 12.7652 28.8562 12.7652 29.2955 13.2045L32.2955 16.2045C32.4034 16.3124 32.4847 16.4367 32.5396 16.5694C32.5946 16.702 32.625 16.8475 32.625 17C32.625 17.1525 32.5946 17.298 32.5396 17.4306C32.4847 17.5633 32.4034 17.6876 32.2955 17.7955L29.2955 20.7955C28.8562 21.2348 28.1438 21.2348 27.7045 20.7955C27.2652 20.3562 27.2652 19.6438 27.7045 19.2045L28.784 18.125H22.5C21.8787 18.125 21.375 17.6213 21.375 17C21.375 16.3787 21.8787 15.875 22.5 15.875H28.784L27.7045 14.7955C27.2652 14.3562 27.2652 13.6438 27.7045 13.2045Z" fill="#1C1B1F"/>
<path fill-rule="evenodd" clip-rule="evenodd" d="M5.2955 13.2045C5.73484 13.6438 5.73484 14.3562 5.2955 14.7955L4.21599 15.875H10.5C11.1213 15.875 11.625 16.3787 11.625 17C11.625 17.6213 11.1213 18.125 10.5 18.125H4.21599L5.2955 19.2045C5.73484 19.6438 5.73484 20.3562 5.2955 20.7955C4.85616 21.2348 4.14384 21.2348 3.7045 20.7955L0.704505 17.7955C0.596644 17.6876 0.515263 17.5633 0.460364 17.4306C0.405359 17.298 0.375 17.1525 0.375 17C0.375 16.8475 0.405359 16.702 0.460364 16.5694C0.514858 16.4377 0.595445 16.3142 0.702123 16.2069M5.2955 13.2045C4.85616 12.7652 4.14384 12.7652 3.7045 13.2045H5.2955ZM3.7045 13.2045L0.704505 16.2045L3.7045 13.2045Z" fill="#1C1B1F"/>
<path fill-rule="evenodd" clip-rule="evenodd" d="M16.5 16.625C16.2929 16.625 16.125 16.7929 16.125 17C16.125 17.2071 16.2929 17.375 16.5 17.375C16.7071 17.375 16.875 17.2071 16.875 17C16.875 16.7929 16.7071 16.625 16.5 16.625ZM13.875 17C13.875 15.5503 15.0503 14.375 16.5 14.375C17.9497 14.375 19.125 15.5503 19.125 17C19.125 18.4497 17.9497 19.625 16.5 19.625C15.0503 19.625 13.875 18.4497 13.875 17Z" fill="#1C1B1F"/>
</svg>
