<svg width="30" height="30" viewBox="0 0 30 30" fill="none" xmlns="http://www.w3.org/2000/svg">
<path fill-rule="evenodd" clip-rule="evenodd" d="M3.375 1.5C3.375 0.87868 3.87868 0.375 4.5 0.375H25.5C26.1213 0.375 26.625 0.87868 26.625 1.5V28.5C26.625 29.1213 26.1213 29.625 25.5 29.625H4.5C3.87868 29.625 3.375 29.1213 3.375 28.5V1.5ZM5.625 2.625V27.375H24.375V2.625H5.625Z" fill="#1C1B1F"/>
<path fill-rule="evenodd" clip-rule="evenodd" d="M14.6975 9.38291C15.0986 9.33515 15.4945 9.50609 15.7348 9.83079C16.152 10.3945 16.7918 11.3525 17.3941 12.3449C17.9868 13.3214 18.5934 14.4127 18.9012 15.2214C19.4105 16.5598 18.9977 17.9386 18.2321 18.9158C17.4644 19.8955 16.2324 20.625 14.8305 20.625C13.2942 20.625 12.0467 19.5777 11.41 18.4067C10.7641 17.2187 10.5702 15.571 11.5871 14.2351M14.6975 9.38291C14.2964 9.43067 13.9517 9.6898 13.7944 10.0618L14.6975 9.38291ZM15.0318 12.8059C14.5876 13.7224 14.028 14.7432 13.3775 15.5978C13.0525 16.0248 13.0262 16.6689 13.3867 17.332C13.7565 18.012 14.354 18.375 14.8305 18.375C15.4415 18.375 16.0545 18.0468 16.461 17.528C16.8695 17.0067 16.9599 16.4463 16.7984 16.0218M15.0318 12.8059C15.1768 13.0342 15.3245 13.2715 15.4707 13.5123C16.0578 14.4796 16.5694 15.4202 16.7984 16.0218M13.7944 10.0618C13.3378 11.1415 12.5606 12.9561 11.5871 14.2351L13.7944 10.0618Z" fill="#1C1B1F"/>
<path fill-rule="evenodd" clip-rule="evenodd" d="M0.375 1.5C0.375 0.87868 0.87868 0.375 1.5 0.375H28.5C29.1213 0.375 29.625 0.87868 29.625 1.5C29.625 2.12132 29.1213 2.625 28.5 2.625H1.5C0.87868 2.625 0.375 2.12132 0.375 1.5Z" fill="#1C1B1F"/>
<path fill-rule="evenodd" clip-rule="evenodd" d="M0.375 28.5C0.375 27.8787 0.87868 27.375 1.5 27.375H28.5C29.1213 27.375 29.625 27.8787 29.625 28.5C29.625 29.1213 29.1213 29.625 28.5 29.625H1.5C0.87868 29.625 0.375 29.1213 0.375 28.5Z" fill="#1C1B1F"/>
<path fill-rule="evenodd" clip-rule="evenodd" d="M0.375 15C0.375 14.3787 0.87868 13.875 1.5 13.875H4.5C5.12132 13.875 5.625 14.3787 5.625 15C5.625 15.6213 5.12132 16.125 4.5 16.125H1.5C0.87868 16.125 0.375 15.6213 0.375 15Z" fill="#1C1B1F"/>
<path fill-rule="evenodd" clip-rule="evenodd" d="M24.375 15C24.375 14.3787 24.8787 13.875 25.5 13.875H28.5C29.1213 13.875 29.625 14.3787 29.625 15C29.625 15.6213 29.1213 16.125 28.5 16.125H25.5C24.8787 16.125 24.375 15.6213 24.375 15Z" fill="#1C1B1F"/>
</svg>
