<svg width="34" height="18" viewBox="0 0 34 18" fill="none" xmlns="http://www.w3.org/2000/svg">
<path fill-rule="evenodd" clip-rule="evenodd" d="M0.875 3C0.875 1.55022 2.05026 0.375 3.5 0.375H27.5C28.9498 0.375 30.125 1.55023 30.125 3V15C30.125 16.4498 28.9498 17.625 27.5 17.625H3.5C2.05026 17.625 0.875 16.4498 0.875 15V3ZM3.5 2.625C3.29288 2.625 3.125 2.79288 3.125 3V15C3.125 15.2071 3.29288 15.375 3.5 15.375H27.5C27.7071 15.375 27.875 15.2071 27.875 15V3C27.875 2.79287 27.7071 2.625 27.5 2.625H3.5Z" fill="#1C1B1F"/>
<path d="M30.5 6H32C32.8284 6 33.5 6.67155 33.5 7.5V10.5C33.5 11.3285 32.8284 12 32 12H30.5V6Z" fill="#1C1B1F"/>
<path fill-rule="evenodd" clip-rule="evenodd" d="M8.75 5.625C9.37132 5.625 9.875 6.12868 9.875 6.75V11.25C9.875 11.8713 9.37132 12.375 8.75 12.375C8.12868 12.375 7.625 11.8713 7.625 11.25V6.75C7.625 6.12868 8.12868 5.625 8.75 5.625Z" fill="#1C1B1F"/>
<path fill-rule="evenodd" clip-rule="evenodd" d="M13.25 5.625C13.8713 5.625 14.375 6.12868 14.375 6.75V11.25C14.375 11.8713 13.8713 12.375 13.25 12.375C12.6287 12.375 12.125 11.8713 12.125 11.25V6.75C12.125 6.12868 12.6287 5.625 13.25 5.625Z" fill="#1C1B1F"/>
<path fill-rule="evenodd" clip-rule="evenodd" d="M17.75 5.625C18.3713 5.625 18.875 6.12868 18.875 6.75V11.25C18.875 11.8713 18.3713 12.375 17.75 12.375C17.1287 12.375 16.625 11.8713 16.625 11.25V6.75C16.625 6.12868 17.1287 5.625 17.75 5.625Z" fill="#1C1B1F"/>
<path fill-rule="evenodd" clip-rule="evenodd" d="M22.25 5.625C22.8713 5.625 23.375 6.12868 23.375 6.75V11.25C23.375 11.8713 22.8713 12.375 22.25 12.375C21.6287 12.375 21.125 11.8713 21.125 11.25V6.75C21.125 6.12868 21.6287 5.625 22.25 5.625Z" fill="#1C1B1F"/>
</svg>
