<svg width="37" height="24" viewBox="0 0 37 24" fill="none" xmlns="http://www.w3.org/2000/svg">
<path fill-rule="evenodd" clip-rule="evenodd" d="M5.375 19.25C5.375 16.9719 7.22182 15.125 9.5 15.125C11.7781 15.125 13.625 16.9719 13.625 19.25C13.625 21.5281 11.7781 23.375 9.5 23.375C7.22182 23.375 5.375 21.5281 5.375 19.25ZM9.5 17.375C8.46447 17.375 7.625 18.2145 7.625 19.25C7.625 20.2855 8.46447 21.125 9.5 21.125C10.5355 21.125 11.375 20.2855 11.375 19.25C11.375 18.2145 10.5355 17.375 9.5 17.375Z" fill="#1C1B1F"/>
<path fill-rule="evenodd" clip-rule="evenodd" d="M22.625 19.25C22.625 16.9719 24.4719 15.125 26.75 15.125C29.0281 15.125 30.875 16.9719 30.875 19.25C30.875 21.5281 29.0281 23.375 26.75 23.375C24.4719 23.375 22.625 21.5281 22.625 19.25ZM26.75 17.375C25.7145 17.375 24.875 18.2145 24.875 19.25C24.875 20.2855 25.7145 21.125 26.75 21.125C27.7855 21.125 28.625 20.2855 28.625 19.25C28.625 18.2145 27.7855 17.375 26.75 17.375Z" fill="#1C1B1F"/>
<path fill-rule="evenodd" clip-rule="evenodd" d="M0.875 1.25C0.875 0.62868 1.37868 0.125 2 0.125H23.75C24.3713 0.125 24.875 0.62868 24.875 1.25V19.25C24.875 19.8713 24.3713 20.375 23.75 20.375H12.5C11.8787 20.375 11.375 19.8713 11.375 19.25C11.375 18.6287 11.8787 18.125 12.5 18.125H22.625V2.375H3.125V18.125H6.5C7.12132 18.125 7.625 18.6287 7.625 19.25C7.625 19.8713 7.12132 20.375 6.5 20.375H2C1.37868 20.375 0.875 19.8713 0.875 19.25V1.25Z" fill="#1C1B1F"/>
<path fill-rule="evenodd" clip-rule="evenodd" d="M22.625 6.5C22.625 5.87868 23.1287 5.375 23.75 5.375H30.1786C30.5311 5.375 30.8632 5.54023 31.0758 5.82138L35.8973 12.1964C36.045 12.3918 36.125 12.63 36.125 12.875V19.25C36.125 19.8713 35.6213 20.375 35 20.375H30.3584C29.7371 20.375 29.2334 19.8713 29.2334 19.25C29.2334 18.6287 29.7371 18.125 30.3584 18.125H33.875V13.2525L29.6189 7.625H24.875V19.25C24.875 19.8713 24.3713 20.375 23.75 20.375C23.1287 20.375 22.625 19.8713 22.625 19.25V6.5Z" fill="#1C1B1F"/>
</svg>
