<svg width="33" height="34" viewBox="0 0 33 34" fill="none" xmlns="http://www.w3.org/2000/svg">
<path fill-rule="evenodd" clip-rule="evenodd" d="M0.375 6.09091C0.375 3.21024 2.71024 0.875 5.59091 0.875C8.47157 0.875 10.8068 3.21024 10.8068 6.09091V10.1818C10.8068 10.8031 10.3031 11.3068 9.68182 11.3068H5.59091C2.71024 11.3068 0.375 8.97157 0.375 6.09091ZM5.59091 3.125C3.95288 3.125 2.625 4.45288 2.625 6.09091C2.625 7.72893 3.95288 9.05682 5.59091 9.05682H8.55682V6.09091C8.55682 4.45288 7.22893 3.125 5.59091 3.125Z" fill="#1C1B1F"/>
<path fill-rule="evenodd" clip-rule="evenodd" d="M5.59091 24.9432C3.95289 24.9432 2.625 26.2711 2.625 27.9092C2.625 29.5472 3.95286 30.875 5.59091 30.875C7.22895 30.875 8.55682 29.5472 8.55682 27.9092V24.9432H5.59091ZM0.375 27.9092C0.375 25.0285 2.71023 22.6932 5.59091 22.6932H9.68182C10.3031 22.6932 10.8068 23.1969 10.8068 23.8182V27.9092C10.8068 30.7899 8.47155 33.125 5.59091 33.125C2.71026 33.125 0.375 30.7899 0.375 27.9092Z" fill="#1C1B1F"/>
<path fill-rule="evenodd" clip-rule="evenodd" d="M8.55688 10.1818C8.55688 9.56047 9.06056 9.05679 9.68188 9.05679H23.3182C23.9396 9.05679 24.4432 9.56047 24.4432 10.1818V23.8181C24.4432 24.4395 23.9396 24.9431 23.3182 24.9431H9.68188C9.06056 24.9431 8.55688 24.4395 8.55688 23.8181V10.1818ZM10.8069 11.3068V22.6931H22.1932V11.3068H10.8069Z" fill="#1C1B1F"/>
<path fill-rule="evenodd" clip-rule="evenodd" d="M27.4091 3.125C25.771 3.125 24.4431 4.45289 24.4431 6.09091V9.05682H27.4091C29.047 9.05682 30.3749 7.72894 30.3749 6.09091C30.3749 4.45288 29.047 3.125 27.4091 3.125ZM22.1931 6.09091C22.1931 3.21023 24.5284 0.875 27.4091 0.875C30.2897 0.875 32.6249 3.21024 32.6249 6.09091C32.6249 8.97156 30.2897 11.3068 27.4091 11.3068H23.3181C22.6968 11.3068 22.1931 10.8031 22.1931 10.1818V6.09091Z" fill="#1C1B1F"/>
<path fill-rule="evenodd" clip-rule="evenodd" d="M22.1931 23.8182C22.1931 23.1969 22.6968 22.6932 23.3181 22.6932H27.4091C30.2897 22.6932 32.6249 25.0285 32.6249 27.9092C32.6249 30.7899 30.2897 33.125 27.4091 33.125C24.5284 33.125 22.1931 30.7899 22.1931 27.9092V23.8182ZM24.4431 24.9432V27.9092C24.4431 29.5472 25.771 30.875 27.4091 30.875C29.0471 30.875 30.3749 29.5472 30.3749 27.9092C30.3749 26.2711 29.047 24.9432 27.4091 24.9432H24.4431Z" fill="#1C1B1F"/>
</svg>
