<svg width="27" height="34" viewBox="0 0 27 34" fill="none" xmlns="http://www.w3.org/2000/svg">
<path fill-rule="evenodd" clip-rule="evenodd" d="M8.27077 0.982178C8.56444 0.843905 8.90353 0.839217 9.20091 0.969318C12.6117 2.46148 14.2678 5.43027 15.0694 7.88514C15.2069 8.30607 15.3207 8.71611 15.4151 9.10671C16.4681 7.79262 18.0991 6.37809 20.4771 5.78359C20.7959 5.7039 21.1336 5.76755 21.4014 5.95781C21.6693 6.14807 21.8406 6.44593 21.8704 6.77315C22.0418 8.65889 22.5497 9.92343 23.0445 11.042C23.0909 11.1471 23.1386 11.2531 23.1867 11.3603C23.6341 12.356 24.125 13.4488 24.125 14.75C24.125 20.7561 19.2561 25.625 13.25 25.625C7.2439 25.625 2.375 20.7561 2.375 14.75C2.375 11.7516 3.43691 9.66311 4.60014 7.74181C4.78994 7.42831 4.98053 7.12156 5.16963 6.81721C6.14663 5.24473 7.08394 3.73614 7.66829 1.69094C7.75746 1.37883 7.9771 1.12045 8.27077 0.982178ZM15.817 12.8566C15.6422 13.3795 15.1142 13.6988 14.5698 13.6105C14.0257 13.5222 13.6259 13.0528 13.625 12.5018C13.625 12.5016 13.625 12.5019 13.625 12.5018L13.6249 12.4911L13.6239 12.4392C13.6227 12.3908 13.6201 12.3154 13.6149 12.2162C13.6043 12.0177 13.5829 11.7249 13.5393 11.3629C13.4519 10.6362 13.2772 9.64497 12.9306 8.58355C12.3381 6.76921 11.2813 4.85248 9.39385 3.62117C8.72588 5.3684 7.84198 6.7863 7.04875 8.05875C6.86822 8.34835 6.69239 8.63041 6.52486 8.90711C5.43809 10.7021 4.625 12.3636 4.625 14.75C4.625 19.5135 8.48655 23.375 13.25 23.375C18.0135 23.375 21.875 19.5135 21.875 14.75C21.875 13.9526 21.5855 13.3008 21.1008 12.2093C21.0639 12.1263 21.0259 12.0406 20.9868 11.9522C20.5714 11.0132 20.1077 9.88797 19.825 8.38843C18.5448 8.98088 17.6167 9.90122 16.9665 10.779C16.5488 11.3429 16.2559 11.8765 16.0689 12.2661C15.9757 12.4602 15.9098 12.6165 15.8686 12.7201C15.848 12.7719 15.8337 12.8104 15.8252 12.8336L15.817 12.8566ZM15.817 12.8566L15.8164 12.8584C15.8163 12.8586 15.8163 12.8584 15.817 12.8566Z" fill="#1C1B1F"/>
<path fill-rule="evenodd" clip-rule="evenodd" d="M0.158856 25.727C0.309548 25.1243 0.920349 24.7578 1.52312 24.9085L25.5231 30.9085C26.1259 31.0592 26.4924 31.67 26.3417 32.2728C26.191 32.8755 25.5802 33.242 24.9774 33.0913L0.977414 27.0913C0.374644 26.9406 0.0081635 26.3298 0.158856 25.727Z" fill="#1C1B1F"/>
<path fill-rule="evenodd" clip-rule="evenodd" d="M26.3417 25.727C26.4924 26.3298 26.1259 26.9406 25.5231 27.0913L1.52312 33.0913C0.920349 33.242 0.309548 32.8755 0.158856 32.2728C0.0081635 31.67 0.374644 31.0592 0.977414 30.9085L24.9774 24.9085C25.5802 24.7578 26.191 25.1243 26.3417 25.727Z" fill="#1C1B1F"/>
</svg>
