<svg width="28" height="34" viewBox="0 0 28 34" fill="none" xmlns="http://www.w3.org/2000/svg">
<path d="M9.25344 1.47799C9.44762 1.10729 9.83152 0.875 10.25 0.875H23.75C24.1807 0.875 24.5736 1.12087 24.7618 1.50822C24.9501 1.89557 24.9007 2.3564 24.6346 2.69505L17.8146 11.375H26.75C27.1968 11.375 27.6013 11.6395 27.7806 12.0488C27.9598 12.4581 27.8797 12.9347 27.5767 13.2631L9.57665 32.7631C9.22624 33.1427 8.66233 33.2348 8.20929 32.9865C7.75626 32.7382 7.53057 32.2133 7.66204 31.7137L11.0406 18.875H2C1.60632 18.875 1.24128 18.6692 1.03748 18.3324C0.833681 17.9956 0.820771 17.5767 1.00344 17.228L9.25344 1.47799ZM10.9307 3.125L3.85928 16.625H12.5C12.8489 16.625 13.178 16.7868 13.391 17.0631C13.604 17.3394 13.6767 17.6989 13.588 18.0363L10.9877 27.9172L24.1805 13.625H15.5C15.0693 13.625 14.6764 13.3791 14.4882 12.9918C14.2999 12.6044 14.3493 12.1436 14.6154 11.8049L21.4354 3.125H10.9307Z" fill="#1C1B1F"/>
</svg>
