<svg width="33" height="34" viewBox="0 0 33 34" fill="none" xmlns="http://www.w3.org/2000/svg">
<path d="M1.5 15.875C2.12132 15.875 2.625 16.3787 2.625 17C2.625 18.4497 3.80026 19.625 5.25 19.625C6.69973 19.625 7.875 18.4497 7.875 17C7.875 16.3787 8.37868 15.875 9 15.875C9.62132 15.875 10.125 16.3787 10.125 17C10.125 18.4497 11.3003 19.625 12.75 19.625C14.1997 19.625 15.375 18.4497 15.375 17C15.375 16.3787 15.8787 15.875 16.5 15.875C17.1213 15.875 17.625 16.3787 17.625 17C17.625 18.4497 18.8003 19.625 20.25 19.625C21.6997 19.625 22.875 18.4497 22.875 17C22.875 16.3787 23.3787 15.875 24 15.875C24.6213 15.875 25.125 16.3787 25.125 17C25.125 18.4497 26.3003 19.625 27.75 19.625C29.1997 19.625 30.375 18.4497 30.375 17C30.375 16.3787 30.8787 15.875 31.5 15.875C32.1213 15.875 32.625 16.3787 32.625 17C32.625 25.9056 25.4056 33.125 16.5 33.125C7.5944 33.125 0.375 25.9056 0.375 17C0.375 16.3787 0.87868 15.875 1.5 15.875ZM3.37089 21.4997C5.23979 26.954 10.412 30.875 16.5 30.875C22.588 30.875 27.7602 26.954 29.6291 21.4996C29.0508 21.7414 28.416 21.875 27.75 21.875C26.2422 21.875 24.8942 21.1904 24 20.1152C23.1058 21.1904 21.7578 21.875 20.25 21.875C18.7422 21.875 17.3942 21.1904 16.5 20.1152C15.6058 21.1904 14.2578 21.875 12.75 21.875C11.2422 21.875 9.89423 21.1904 9 20.1152C8.10577 21.1904 6.75782 21.875 5.25 21.875C4.584 21.875 3.94919 21.7414 3.37089 21.4997Z" fill="#1C1B1F"/>
<path d="M17.4693 1.42903L16.5 2L15.5307 1.42903C15.7329 1.08574 16.1016 0.875 16.5 0.875C16.8984 0.875 17.2671 1.08574 17.4693 1.42903ZM16.5 4.30938C16.6598 4.60829 16.8282 4.93011 16.9964 5.26211C17.3642 5.98805 17.722 6.74556 17.9852 7.41042C18.2689 8.12695 18.375 8.57425 18.375 8.75C18.375 9.7855 17.5355 10.625 16.5 10.625C15.4645 10.625 14.625 9.7855 14.625 8.75C14.625 8.57425 14.7311 8.12695 15.0148 7.41042C15.278 6.74556 15.6358 5.98805 16.0036 5.26211C16.1718 4.93011 16.3402 4.60829 16.5 4.30938ZM16.5 2C15.5307 1.42903 15.5307 1.42893 15.5307 1.42903L15.5207 1.44591L15.4943 1.4912C15.4714 1.53052 15.4382 1.58776 15.3961 1.66083C15.312 1.80693 15.1924 2.01656 15.0491 2.27297C14.7631 2.78494 14.3804 3.48742 13.9964 4.24527C13.6142 4.99973 13.222 5.82617 12.9227 6.58226C12.6439 7.28668 12.375 8.09733 12.375 8.75C12.375 11.0281 14.2219 12.875 16.5 12.875C18.7781 12.875 20.625 11.0281 20.625 8.75C20.625 8.09733 20.3561 7.28668 20.0773 6.58226C19.778 5.82617 19.3858 4.99973 19.0036 4.24527C18.6196 3.48742 18.2369 2.78494 17.9509 2.27297C17.8076 2.01656 17.688 1.80693 17.6039 1.66083C17.5618 1.58776 17.5286 1.53052 17.5057 1.4912L17.4793 1.44591L17.4702 1.43051C17.4701 1.4304 17.4693 1.42903 16.5 2Z" fill="#1C1B1F"/>
</svg>
