<svg width="34" height="34" viewBox="0 0 34 34" fill="none" xmlns="http://www.w3.org/2000/svg">
<path fill-rule="evenodd" clip-rule="evenodd" d="M15.875 2C15.875 1.37868 16.3787 0.875 17 0.875C21.7634 0.875 25.625 4.73654 25.625 9.5C25.625 14.2634 21.7634 18.125 17 18.125C16.3787 18.125 15.875 17.6213 15.875 17V2ZM18.125 3.22395V15.776C21.1092 15.2447 23.375 12.6369 23.375 9.5C23.375 6.36306 21.1092 3.7553 18.125 3.22395Z" fill="#1C1B1F"/>
<path fill-rule="evenodd" clip-rule="evenodd" d="M15.875 17C15.875 16.3787 16.3787 15.875 17 15.875H32C32.6213 15.875 33.125 16.3787 33.125 17C33.125 21.7634 29.2634 25.625 24.5 25.625C19.7366 25.625 15.875 21.7634 15.875 17ZM18.224 18.125C18.7553 21.1092 21.3631 23.375 24.5 23.375C27.6369 23.375 30.2447 21.1092 30.776 18.125H18.224Z" fill="#1C1B1F"/>
<path fill-rule="evenodd" clip-rule="evenodd" d="M0.875 17C0.875 12.2366 4.73654 8.375 9.5 8.375C14.2634 8.375 18.125 12.2366 18.125 17C18.125 17.6213 17.6213 18.125 17 18.125H2C1.37868 18.125 0.875 17.6213 0.875 17ZM3.22395 15.875H15.776C15.2447 12.8908 12.6369 10.625 9.5 10.625C6.36306 10.625 3.7553 12.8908 3.22395 15.875Z" fill="#1C1B1F"/>
<path fill-rule="evenodd" clip-rule="evenodd" d="M8.375 24.5C8.375 19.7366 12.2366 15.875 17 15.875C17.6213 15.875 18.125 16.3787 18.125 17V32C18.125 32.6213 17.6213 33.125 17 33.125C12.2366 33.125 8.375 29.2634 8.375 24.5ZM15.875 18.224C12.8908 18.7553 10.625 21.3631 10.625 24.5C10.625 27.6369 12.8908 30.2447 15.875 30.776V18.224Z" fill="#1C1B1F"/>
</svg>
